<svg width="94" height="94" viewBox="0 0 94 94" fill="none" xmlns="http://www.w3.org/2000/svg">
<g clip-path="url(#clip0_602_31027)">
<circle cx="46.9756" cy="46.9756" r="46.9756" fill="#DD5428"/>
<path d="M46.8035 77.9455C43.5204 77.9455 40.5922 77.4131 38.019 76.3484C35.5345 75.3723 33.3162 73.997 31.3642 72.2223C29.5008 70.4477 27.9036 68.3625 26.5726 65.9667C25.3304 63.4823 24.3987 60.8203 23.7776 57.9809C23.1565 55.1415 22.8459 52.2133 22.8459 49.1964C22.8459 45.9134 23.2008 42.3641 23.9107 38.5486C24.6205 34.7332 25.774 30.9621 27.3712 27.2354C28.9684 23.4199 30.9649 19.9594 33.3606 16.8537C35.8451 13.7481 38.7732 11.2636 42.1451 9.40028C45.6056 7.53691 49.5541 6.60522 53.9907 6.60522C56.564 6.60522 58.871 7.13762 60.9118 8.2024C62.9526 9.26718 64.5054 10.82 65.5702 12.8608C66.7237 14.8129 67.3005 17.1643 67.3005 19.915C67.3005 23.9079 66.1026 28.0339 63.7069 32.2931C61.3998 36.5522 58.1168 40.8557 53.8576 45.2035C49.6872 49.4626 44.7183 53.7218 38.9507 57.9809C33.893 61.7964 28.6578 65.2125 23.2452 68.2294C17.9213 71.2463 12.7305 73.642 7.67278 75.4167C2.61507 77.1026 -2.08771 77.9455 -6.43556 77.9455C-7.41161 77.9455 -8.12146 77.5019 -8.56512 76.6145C-9.09751 75.816 -9.27498 74.8843 -9.09751 73.8195C-9.00878 72.7547 -8.56512 71.823 -7.76654 71.0245C-7.05669 70.1371 -5.94754 69.6935 -4.4391 69.6935C-0.978562 69.6935 2.97 68.8949 7.40659 67.2977C11.7544 65.6118 16.2798 63.3935 20.9825 60.6428C25.7741 57.8922 30.3881 54.7865 34.8247 51.326C39.35 47.9542 43.2986 44.5824 46.6704 41.2106C50.1309 37.8388 52.7929 34.5557 54.6562 31.3614C56.6083 28.167 57.5844 25.1502 57.5844 22.3107C57.5844 20.0924 57.0963 18.3622 56.1203 17.1199C55.1442 15.8777 53.6802 15.2566 51.7281 15.2566C48.5337 15.2566 45.7387 16.4101 43.3429 18.7171C40.9472 21.0241 38.9063 23.9523 37.2204 27.5015C35.5345 30.9621 34.2923 34.6444 33.4937 38.5486C32.6951 42.3641 32.2958 45.869 32.2958 49.0634C32.2958 51.814 32.6064 54.4316 33.2275 56.9161C33.9374 59.3119 34.9578 61.4414 36.2888 63.3048C37.6197 65.1682 39.3056 66.6766 41.3465 67.8301C43.476 68.8949 45.9605 69.4273 48.7999 69.4273C51.9943 69.4273 55.0555 68.7174 57.9837 67.2977C61.0005 65.878 63.7956 64.1034 66.3688 61.9738C68.942 59.8443 71.2047 57.7147 73.1568 55.5851C74.0441 54.5204 75.0201 54.1211 76.0849 54.3873C77.2384 54.5647 78.1701 55.0527 78.88 55.8513C79.6786 56.6499 80.1222 57.4929 80.211 58.3802C80.3884 59.2675 80.0335 60.2435 79.1462 61.3083C76.218 64.9463 73.0237 68.0076 69.5632 70.4921C66.1026 72.8878 62.4202 74.7068 58.5161 75.9491C54.7006 77.28 50.7964 77.9455 46.8035 77.9455Z" fill="white"/>
</g>
<defs>
<clipPath id="clip0_602_31027">
<rect width="93.9512" height="93.9512" rx="46.9756" fill="white"/>
</clipPath>
</defs>
</svg>
